HIERARCHY
ROOT Hips
{
  OFFSET 13.6774 106.653 -34.4427
  CHANNELS 6 Xposition Yposition Zposition Zrotation Xrotation Yrotation
  JOINT ToSpine
  {
    OFFSET -2.69724 7.43032 -0.144315
    CHANNELS 3 Zrotation Xrotation Yrotation
    JOINT Spine
    {
      OFFSET -0.0310711 10.7595 1.96963
      CHANNELS 3 Zrotation Xrotation Yrotation
      JOINT Spine1
      {
        OFFSET 19.9056 3.91189 0.764692
        CHANNELS 3 Zrotation Xrotation Yrotation
        JOINT Neck
        {
          OFFSET 25.9749 7.03908 -0.130764
          CHANNELS 3 Zrotation Xrotation Yrotation
          JOINT Head
          {
            OFFSET 9.52751 0.295786 -0.907742
            CHANNELS 3 Zrotation Xrotation Yrotation
            End Site
            {
              OFFSET 16.4037 0.713936 2.7358
            }
          }
        }
        JOINT LeftShoulder
        {
          OFFSET 17.7449 4.33886 11.7777
          CHANNELS 3 Zrotation Xrotation Yrotation
          JOINT LeftArm
          {
            OFFSET 0.911315 1.27913 9.80584
            CHANNELS 3 Zrotation Xrotation Yrotation
            JOINT LeftForeArm
            {
              OFFSET 28.6126 1.18197 -3.53199
              CHANNELS 3 Zrotation Xrotation Yrotation
              JOINT LeftHand
              {
                OFFSET 27.5088 0.0218783 0.327423
                CHANNELS 3 Zrotation Xrotation Yrotation
                End Site
                {
                  OFFSET 18.6038 -0.000155887 0.382096
                }
              }
            }
          }
        }
        JOINT RightShoulder
        {
          OFFSET 17.1009 2.89543 -12.2328
          CHANNELS 3 Zrotation Xrotation Yrotation
          JOINT RightArm
          {
            OFFSET 1.4228 0.178766 -10.211
            CHANNELS 3 Zrotation Xrotation Yrotation
            JOINT RightForeArm
            {
              OFFSET 28.733 1.87905 2.64907
              CHANNELS 3 Zrotation Xrotation Yrotation
              JOINT RightHand
              {
                OFFSET 27.4588 0.290562 -0.101845
                CHANNELS 3 Zrotation Xrotation Yrotation
                End Site
                {
                  OFFSET 17.8396 -0.255518 -0.000602873
                }
              }
            }
          }
        }
      }
    }
  }
  JOINT LeftUpLeg
  {
    OFFSET -5.61296 -2.22332 -10.2353
    CHANNELS 3 Zrotation Xrotation Yrotation
    JOINT LeftLeg
    {
      OFFSET 2.56703 -44.7417 -7.93097
      CHANNELS 3 Zrotation Xrotation Yrotation
      JOINT LeftFoot
      {
        OFFSET 3.16933 -46.5642 -3.96578
        CHANNELS 3 Zrotation Xrotation Yrotation
        JOINT LeftToeBase
        {
          OFFSET 0.346054 -6.02161 12.8035
          CHANNELS 3 Zrotation Xrotation Yrotation
          End Site
          {
            OFFSET 0.134235 -1.35082 5.13018
          }
        }
      }
    }
  }
  JOINT RightUpLeg
  {
    OFFSET -5.7928 -1.72406 10.6446
    CHANNELS 3 Zrotation Xrotation Yrotation
    JOINT RightLeg
    {
      OFFSET -2.57161 -44.7178 -7.85259
      CHANNELS 3 Zrotation Xrotation Yrotation
      JOINT RightFoot
      {
        OFFSET -3.10148 -46.5936 -4.03391
        CHANNELS 3 Zrotation Xrotation Yrotation
        JOINT RightToeBase
        {
          OFFSET -0.0828122 -6.13587 12.8035
          CHANNELS 3 Zrotation Xrotation Yrotation
          End Site
          {
            OFFSET -0.131328 -1.35082 5.13018
          }
        }
      }
    }
  }
}
MOTION
Frames: 10
Frame Time: 0.03333333333333333
0.0000 93.1000 0.0000 78.4049 1.9848 29.8220 -70.9355 -0.3788 87.8780 110.9820 66.6044 -35.5523 -7.6490 14.9366 10.8509 -114.5436 24.2091 145.9488 177.3510 73.5557 -144.1985 0.7584 -9.0567 -13.0240 -57.8510 36.9950 -139.0174 23.3789 -5.8640 -101.8006 -0.1002 0.4515 0.1374 -1.2777 6.3850 29.6533 -96.4191 -5.5026 44.6356 6.6501 0.2621 99.7706 -0.3446 -0.4907 -0.6627 -52.1564 32.2878 114.5216 -1.1467 41.7935 12.5788 -0.6060 -11.5035 -1.0174 1.7920 -6.2781 0.7102 -33.8160 -3.7418 66.3647 37.2507 82.1532 -15.9007 2.4674 5.9629 -2.7790 2.5231 -21.4893 -36.6716 
0.0000 93.1000 0.0000 80.1108 0.5821 24.0947 -70.9251 0.0847 87.6436 104.9528 67.0425 -30.5827 -5.3945 15.1809 9.4165 -112.7158 24.0719 145.7853 177.3514 74.1834 -141.9318 0.9145 -10.2041 -12.8814 -56.9266 35.2212 -141.8432 21.0834 -4.8301 -101.7101 -0.0952 0.2530 -0.2497 -0.9550 6.1014 28.0301 -101.8630 -1.1840 48.9831 8.8613 1.1494 100.8538 -0.3660 -0.2856 -0.6566 -50.9569 26.7288 109.3097 -2.1755 49.8145 8.9015 -1.2297 -3.2419 -0.5436 2.7208 -7.3722 0.9071 -42.0608 -1.8000 59.8192 10.7453 67.2281 18.7045 8.0565 10.3900 -3.4447 3.0921 -11.8041 -29.9071 
0.0000 93.1000 0.0000 80.0978 -1.0904 18.6675 -71.0599 0.1075 87.3745 96.8718 67.8001 -23.1041 -3.4936 15.4619 7.7675 -112.8302 26.1861 145.5641 174.9331 75.1373 -138.4501 0.6852 -11.5624 -11.8553 -56.6477 32.5935 -145.0625 20.7908 -4.8099 -101.5686 0.2271 0.2691 -0.1370 -1.0586 5.0435 28.7728 -109.8879 1.8593 54.0968 11.8118 1.8857 101.6654 -0.0002 -0.2453 -0.2920 -47.1940 21.7308 102.7955 -5.3598 59.9388 1.2380 -0.2807 1.5666 -0.1264 1.0558 -4.3109 1.7911 -47.4195 0.0330 56.7018 5.6804 51.9540 23.4725 12.5210 14.5765 -4.4617 2.7355 -6.5805 -21.7708 
0.0000 93.1000 0.0000 80.0681 -3.1302 12.4448 -70.9570 -0.1374 87.4532 92.9337 68.6725 -20.5331 -3.7855 16.5404 6.1915 -115.4037 29.3315 147.6926 169.0289 76.3325 -135.4373 0.3285 -12.0446 -11.9843 -56.8710 31.6843 -147.8328 19.9275 -4.8435 -101.0368 0.0015 0.8805 0.1505 -0.9966 3.9831 31.1934 -117.9484 3.9834 61.7988 14.1640 2.6330 102.8649 0.3759 -0.8867 0.4807 -45.7385 19.0242 98.6627 -7.0592 64.7944 -2.5603 -0.5113 0.5113 -0.6896 0.0502 -3.1469 2.3995 -52.1136 1.6366 60.5918 4.6642 40.7632 20.9313 13.5947 14.3495 -4.2938 3.5766 -5.4659 -22.9515 
0.0000 93.1000 0.0000 79.8604 -7.0847 6.1100 -70.6488 -0.2108 87.1726 92.0058 69.1179 -18.7773 -3.2933 17.4641 4.4181 -120.2449 33.3384 152.6543 157.6512 76.7635 -128.9600 0.2386 -11.9581 -12.5831 -58.9934 30.9887 -148.9724 19.1142 -4.0637 -99.7623 -0.1117 1.0296 -0.0502 -1.0653 3.9656 33.8979 -124.7014 4.0021 70.9636 15.1227 3.6707 103.7851 0.4487 -1.1138 0.6439 -46.1049 18.3587 97.6128 -6.9909 64.9783 -0.1579 -2.1370 -1.3582 -1.2189 1.1393 -6.7684 5.0616 -54.1314 2.2014 68.6868 2.2263 36.0480 10.2269 7.2534 8.2348 -2.3792 1.8928 -9.3598 -14.0157 
0.0000 93.1000 0.0000 80.2560 -12.4009 2.2375 -70.5941 0.1534 87.2884 91.6022 69.1654 -16.7073 -2.7460 17.7479 4.3096 -128.0701 37.1100 157.3868 151.3101 77.4209 -125.9327 0.4906 -12.6238 -14.8685 -62.9889 29.9572 -148.8539 21.2812 -3.9732 -99.0674 0.0887 0.4312 -0.4326 -1.4655 4.7591 36.8817 -130.3018 2.0561 80.3819 15.2072 3.9057 103.7106 0.4329 -0.4125 -0.0550 -47.9635 19.9289 97.8097 -4.7822 61.9267 2.3895 -1.5620 -0.3039 -0.8453 1.0327 -6.7897 6.6640 -52.9473 2.2471 78.1506 1.2568 37.2904 2.3896 -0.4468 -0.1671 -0.5138 1.4845 -9.9691 -7.4899 
0.0000 93.1000 0.0000 78.0226 -16.2197 -1.4462 -70.4515 -0.5678 87.3117 90.7919 69.0830 -14.4387 -3.0888 16.8864 6.0262 -134.1604 39.1102 162.1779 150.5814 78.5967 -127.5068 -0.1548 -12.9550 -18.7110 -65.9088 28.8244 -148.8352 21.0725 -3.7752 -98.1580 -0.2269 0.9156 0.1312 -1.7971 5.0827 39.6256 -132.6750 -0.3928 88.7526 15.7671 2.7115 101.7216 0.3328 -0.9026 0.0811 -48.0712 22.3542 97.3413 -3.0755 57.6762 6.9854 -1.6398 1.1665 -0.7835 -0.4203 -3.8503 6.9191 -49.0539 0.9872 82.6101 2.3666 40.0209 6.8662 -0.8053 -7.0798 -0.4142 3.5699 -8.5790 -21.6357 
0.0000 93.1000 0.0000 76.3001 -21.0378 -3.7401 -70.3483 -0.4571 87.5739 90.7539 69.2999 -12.1110 -2.3802 16.6968 7.7755 -138.1545 40.0036 166.3004 150.6559 78.2872 -130.4802 -0.1217 -14.1931 -19.8859 -68.3275 29.1907 -147.9810 21.2200 -3.1319 -97.1425 -0.0734 0.6024 0.0487 -2.2038 6.4011 40.7639 -134.6680 -4.7240 94.1802 16.8063 1.7553 98.8114 -0.0197 -0.4603 0.0556 -49.2440 24.7571 96.7470 -1.7413 53.5608 7.7967 -1.2843 2.7095 -0.5768 -0.6904 -2.9909 7.9534 -45.5344 -1.7848 83.1184 3.1639 40.6715 9.9351 -2.3506 -11.8096 0.1130 3.1637 -6.4132 -24.8911 
0.0000 93.1000 0.0000 74.5710 -25.4410 -6.0786 -70.2620 -0.5306 87.8463 92.9780 69.1343 -13.7536 -3.1172 16.7393 8.6855 -137.1512 39.2174 164.3246 157.7317 78.3609 -137.1728 -0.3227 -14.8429 -20.2514 -69.0880 29.6297 -146.8805 22.3938 -3.0701 -97.0501 -0.1646 0.8401 -0.1363 -2.3654 6.9077 44.0838 -134.7382 -6.1778 100.6810 16.0216 0.6320 94.6355 0.2572 -0.7116 0.4464 -52.1270 24.9139 96.7858 -1.8276 51.0706 6.9028 -1.5980 4.6243 -0.8383 1.2471 -7.7718 9.1344 -40.7199 -3.9196 84.9494 3.4050 45.9361 11.0375 -6.0334 -14.0495 1.0031 2.9557 -8.7696 -26.5347 
0.0000 93.1000 0.0000 73.2299 -29.2150 -8.7416 -70.3555 -0.4184 87.8789 98.9359 68.7818 -17.5233 -3.5409 16.9527 8.0955 -134.9027 37.3662 160.8957 163.8592 78.0570 -142.6743 -0.1142 -15.8526 -21.7062 -71.2341 28.1720 -146.7834 23.2822 -2.9912 -96.2601 0.2636 0.3334 0.1411 -3.0124 7.2999 47.6089 -134.6114 -5.7721 105.9111 15.0392 -0.1370 90.8901 0.2047 -0.1138 0.0412 -53.9734 24.4707 97.6399 -1.5957 50.0077 4.9493 -3.2453 2.7156 -0.2485 2.1467 -8.7172 10.5519 -35.9960 -4.9704 87.6901 5.4669 52.3176 13.1202 -7.6812 -14.3426 1.2075 2.7503 -14.6121 -31.6495 
